<?xml version="1.0" standalone="no"?><!DOCTYPE svg PUBLIC "-//W3C//DTD SVG 1.1//EN" "http://www.w3.org/Graphics/SVG/1.1/DTD/svg11.dtd"><svg t="1555837055430" class="icon" style="" viewBox="0 0 1024 1024" version="1.1" xmlns="http://www.w3.org/2000/svg" p-id="5273" xmlns:xlink="http://www.w3.org/1999/xlink" width="128" height="128"><defs><style type="text/css"></style></defs><path d="M928 368a64 64 0 0 0-24.832 4.992L479.232 140.096A63.616 63.616 0 0 0 352 144c0 5.504 1.792 10.432 3.136 15.488L129.536 282.816A62.208 62.208 0 0 0 96 272a64 64 0 0 0-64 64c0 29.76 20.736 53.696 48.256 60.8 0.128 0.512 0 1.088 0.128 1.536l59.584 222.336A62.784 62.784 0 0 0 128 656a64 64 0 0 0 64 64c2.688 0 4.928-1.216 7.488-1.472l214.976 178.432c1.664 1.344 3.712 1.984 5.504 3.008a63.424 63.424 0 0 0 60.032 44.032 64 64 0 0 0 64-64c0-5.312-1.792-10.048-3.008-15.04l355.584-378.368a62.144 62.144 0 0 0 31.424 9.408 64 64 0 1 0 0-128zM472.448 573.312c21.696-15.872 36.16-40.512 38.656-68.736l306.432-27.392-314.752 334.976-30.336-238.848z m-254.784 24.256a62.528 62.528 0 0 0-18.752-4.16l-54.016-201.472L323.84 470.528A95.36 95.36 0 0 0 320 496c0 8.576 1.472 16.768 3.648 24.704L217.664 597.568z m628.8-187.136l-351.36 31.296a96.192 96.192 0 0 0-40.896-33.728L451.584 195.84l1.792-1.28 393.088 215.872z m-456.256-6.464a94.336 94.336 0 0 0-28.8 13.184l-190.784-83.84L387.84 214.656l2.368 189.312z m-138.752 274.496A62.72 62.72 0 0 0 256 656c0-2.24-1.088-4.096-1.28-6.336l105.088-76.16c14.336 10.432 31.616 16.768 50.432 17.92l30.464 239.296c-1.024 0.832-2.24 1.28-3.2 2.176l-186.048-154.432z" fill="#ffffff" p-id="5274"></path></svg>