<?xml version="1.0" standalone="no"?><!DOCTYPE svg PUBLIC "-//W3C//DTD SVG 1.1//EN" "http://www.w3.org/Graphics/SVG/1.1/DTD/svg11.dtd"><svg t="1555254129839" class="icon" style="" viewBox="0 0 1024 1024" version="1.1" xmlns="http://www.w3.org/2000/svg" p-id="6176" xmlns:xlink="http://www.w3.org/1999/xlink" width="200" height="200"><defs><style type="text/css"></style></defs><path d="M800.358 924.877H223.642c-25.19 0-46.695-15.975-55.092-38.195-63.795 6.86-102.195 15.564-102.195 25.088 0 21.708 198.042 39.321 442.368 39.321s442.368-17.613 442.368-39.321c0-9.216-35.942-17.716-95.846-24.474-8.602 22.016-29.901 37.58-54.887 37.58z" fill="#E6ECF0" p-id="6177"></path><path d="M951.194 598.22c12.902-9.522 12.902-29.695 12.902-46.898 0-23.348 0-52.43-32.46-52.43-1.537 0-3.073 0.103-4.506 0.206l-38.4-157.901 16.486-52.122c0-14.438-11.776-26.214-26.214-26.214H859.34v-55.194L724.48 72.91H223.642c-32.564 0-58.983 26.419-58.983 58.982v131.072H145c-14.439 0-26.215 11.776-26.215 26.215l16.384 52.428L96.666 500.02c-1.332-0.102-2.663-0.205-3.994-0.205h-0.102c-31.847 0-31.847 28.57-31.847 51.508 0 16.69 0.103 36.25 12.288 45.772L20.48 813.466c0 14.438 11.776 26.214 26.214 26.214H164.66v26.214c0 7.27 1.434 14.234 3.891 20.788 8.397 22.323 29.901 38.195 55.092 38.195h576.716c24.986 0 46.285-15.565 54.887-37.581 2.56-6.656 4.096-13.926 4.096-21.402V839.68h117.965c14.438 0 26.214-11.776 26.214-26.214L951.194 598.22z m-831.386-19.762c-7.27 7.27-16.896 11.264-27.238 11.264-15.258 0-18.33-7.578-18.74-33.178v-5.222c0-29.696 2.458-38.4 18.74-38.4h1.024c20.684 0.512 37.478 17.408 37.478 38.297-0.102 10.343-3.994 19.968-11.264 27.239z m680.55 333.312H223.642c-18.33 0-34.202-10.855-41.575-26.522-2.765-5.94-4.3-12.39-4.3-19.354V131.891c0-25.293 20.582-45.875 45.875-45.875h495.41l2.663 2.662v-9.216l131.072 131.072h-9.216l2.663 2.663v652.697c0 7.168-1.741 13.927-4.608 19.968-7.476 15.36-23.143 25.908-41.268 25.908z m150.63-355.124v0.615c0 1.536 0 2.97-0.102 4.403v0.205c0 1.536-0.102 2.97-0.204 4.3v0.103c-1.024 17.306-4.916 24.269-19.047 24.269-21.709 0-39.321-17.613-39.321-39.322 0-21.197 16.896-38.502 37.888-39.219 0.512 0 0.921-0.102 1.433-0.102 17.715 0 19.354 10.752 19.354 39.321v5.427z" fill="#7cba59" p-id="6178"></path><path d="M787.251 210.534c-36.147 0-65.536-29.388-65.536-65.536v-56.32l-2.662-2.662H223.642c-25.293 0-45.876 20.582-45.876 45.875v734.003c0 6.964 1.536 13.517 4.301 19.354 7.27 15.667 23.143 26.522 41.575 26.522h576.716c18.125 0 33.792-10.548 41.268-25.908 2.97-6.041 4.608-12.8 4.608-19.968V213.197l-2.663-2.663h-56.32z m-693.76 302.49h-1.024c-16.281 0-18.739 8.602-18.739 38.4v5.222c0 2.765 0.102 5.325 0.205 7.68v0.41c0.102 2.355 0.307 4.403 0.512 6.349v0.41c0.205 1.945 0.512 3.686 0.819 5.222 0 0.102 0 0.205 0.102 0.307 0.41 1.536 0.82 2.97 1.332 4.3 2.662 6.247 7.27 8.5 15.667 8.5 10.342 0 19.968-3.994 27.238-11.264s11.264-16.896 11.162-27.136c0.205-20.992-16.487-37.99-37.274-38.4zM931.635 512c-0.512 0-0.921 0.102-1.433 0.102-20.992 0.717-37.888 18.023-37.888 39.22 0 21.708 17.612 39.321 39.321 39.321 8.295 0 13.005-2.457 15.77-7.987v0.102c0.102-0.102 0.102-0.307 0.205-0.512 0.307-0.512 0.512-1.228 0.716-1.843 0.205-0.614 0.41-1.229 0.615-1.945 0.205-0.615 0.307-1.332 0.512-2.048 0.205-0.82 0.307-1.741 0.41-2.663 0.102-0.717 0.204-1.331 0.307-2.048 0.204-1.638 0.307-3.481 0.512-5.427v-0.102c0.102-1.332 0.102-2.765 0.204-4.301v-0.205c0-1.434 0.103-2.867 0.103-4.403v-5.939c0-28.468-1.639-39.322-19.354-39.322z" fill="#FFFFFF" p-id="6179"></path><path d="M852.787 210.534L721.715 79.462v9.216l121.856 121.856z" fill="#CEDAE0" p-id="6180"></path><path d="M721.715 88.678v56.32c0 36.148 29.389 65.536 65.536 65.536h56.32L721.715 88.678zM390.042 335.053c-17.101 0-31.028 13.824-31.028 30.925 0 16.998 13.824 30.822 30.823 30.924 17.1 0.103 30.925-13.721 31.027-30.822 0.102-17.1-13.722-30.925-30.822-31.027z m243.916 0c-17.1 0-31.027 13.824-31.027 30.925 0 16.998 13.824 30.822 30.823 30.924 17.1 0.103 30.924-13.721 31.027-30.822 0.102-17.1-13.722-30.925-30.823-31.027zM588.186 480.87H440.73c-1.741 0-3.482 0.717-4.71 1.946a6.325 6.325 0 0 0-1.844 4.813c1.331 42.189 35.43 76.288 77.62 77.619h2.662c43.11 0 78.745-34.304 80.179-77.62 0.102-1.74-0.615-3.48-1.843-4.812-1.127-1.229-2.868-1.946-4.608-1.946z m-75.879 71.27c-17.305-0.511-32.87-7.68-44.441-18.943 7.987-10.343 24.78-17.51 44.236-17.51 21.197 0 39.22 8.499 46.08 20.275-12.39 10.65-28.467 16.793-45.875 16.179z" fill="#7cba59" p-id="6181"></path><path d="M276.07 427.827a31.027 20.685 0 1 0 62.055 0 31.027 20.685 0 1 0-62.055 0zM685.875 427.827a31.027 20.685 0 1 0 62.055 0 31.027 20.685 0 1 0-62.055 0zM512 515.686c-19.456 0-36.25 7.168-44.237 17.51 11.571 11.265 27.239 18.433 44.442 18.945 17.408 0.614 33.587-5.632 45.875-16.18-6.86-11.775-24.883-20.275-46.08-20.275z" fill="#EBF2F5" p-id="6182"></path></svg>